# Blender 4.4.0
# www.blender.org
mtllib testtower.mtl
o Cube
v 1.000000 1.000000 -1.000000
v 1.000000 -1.000000 -1.000000
v 1.000000 1.000000 1.000000
v 1.000000 -1.000000 1.000000
v -1.000000 1.000000 -1.000000
v -1.000000 -1.000000 -1.000000
v -1.000000 1.000000 1.000000
v -1.000000 -1.000000 1.000000
v 1.000000 7.587893 1.000000
v 0.679294 7.908599 0.679294
v -0.679294 7.908599 0.679294
v -1.000000 7.587893 1.000000
v 1.000000 7.587893 -1.000000
v 0.679294 7.908599 -0.679294
v -0.679294 7.908599 -0.679294
v -1.000000 7.587893 -1.000000
vn -0.0000 -0.0000 -1.0000
vn -0.0000 -0.0000 1.0000
vn -1.0000 -0.0000 -0.0000
vn -0.0000 -1.0000 -0.0000
vn 1.0000 -0.0000 -0.0000
vn -0.0000 1.0000 -0.0000
vn -0.0000 0.7071 0.7071
vn 0.7071 0.7071 -0.0000
vn -0.7071 0.7071 -0.0000
vn -0.0000 0.7071 -0.7071
vt 0.625000 0.500000
vt 0.625000 0.250000
vt 0.375000 0.750000
vt 0.625000 0.750000
vt 0.625000 1.000000
vt 0.375000 1.000000
vt 0.375000 0.000000
vt 0.625000 0.000000
vt 0.375000 0.250000
vt 0.125000 0.500000
vt 0.375000 0.500000
vt 0.125000 0.750000
vt 0.665088 0.540088
vt 0.834912 0.540088
vt 0.834912 0.709912
vt 0.665088 0.709912
vt 0.875000 0.750000
vt 0.875000 0.500000
s 0
usemtl Material
f 1/1/1 5/2/1 16/2/1 13/1/1
f 4/3/2 3/4/2 7/5/2 8/6/2
f 8/7/3 7/8/3 5/2/3 6/9/3
f 6/10/4 2/11/4 4/3/4 8/12/4
f 2/11/5 1/1/5 3/4/5 4/3/5
f 6/9/1 5/2/1 1/1/1 2/11/1
f 3/4/5 1/1/5 13/1/5 9/4/5
f 5/2/3 7/8/3 12/8/3 16/2/3
f 14/13/6 15/14/6 11/15/6 10/16/6
f 10/16/7 11/15/7 12/17/7 9/4/7
f 14/13/8 10/16/8 9/4/8 13/1/8
f 11/15/9 15/14/9 16/18/9 12/17/9
f 15/14/10 14/13/10 13/1/10 16/18/10
f 7/5/2 3/4/2 9/4/2 12/5/2
